<svg xmlns="http://www.w3.org/2000/svg" width="42" height="54.335" viewBox="0 0 42 54.335">
  <g id="Group_41" data-name="Group 41" transform="translate(-759 -3082.166)">
    <g id="Group_38" data-name="Group 38" transform="translate(8420.98 -755.834)">
      <path id="Path_5" data-name="Path 5" d="M302.389,0a.931.931,0,0,1,.143,1.571c-.558.629-1.091,1.279-1.657,1.946a10.2,10.2,0,0,1,3.527,7.905H287.39a10.176,10.176,0,0,1,3.527-7.911l-1.8-2.084A.917.917,0,0,1,289.4,0h.331a3.482,3.482,0,0,1,.418.349q.87.982,1.719,1.981a.31.31,0,0,0,.448.1,3.932,3.932,0,0,1,.694-.352,6.44,6.44,0,0,1,1.452-.4,13.665,13.665,0,0,1,2.632-.027,5.915,5.915,0,0,1,2.379.776.268.268,0,0,0,.4-.051c.331-.406.666-.81,1.021-1.195.376-.407.775-.79,1.163-1.183ZM293.4,7.3a1.064,1.064,0,1,0-2.11.01,1.068,1.068,0,1,0,2.11-.01Zm7.088.051a1.115,1.115,0,0,0-1.041-1.245,1.086,1.086,0,0,0-1.064,1.154,1.067,1.067,0,1,0,2.1.09Z" transform="translate(-7936.698 3838)"/>
      <path id="Path_7" data-name="Path 7" d="M301.712,459.481v.5c-.009,1.846.013,3.692-.04,5.536a2.157,2.157,0,0,1-1.355,2.023,1.925,1.925,0,0,1-2.61-1.217,3.591,3.591,0,0,1-.237-1.321c-.026-1.691-.011-3.382-.011-5.073v-.422h-2.811c-.006.132-.016.261-.016.389,0,1.68-.005,3.36,0,5.04a3.152,3.152,0,0,1-.547,1.935,1.922,1.922,0,0,1-2.806.362,2.805,2.805,0,0,1-.9-2.213q0-2.536,0-5.073v-.466c-.451,0-.868-.017-1.284,0a1.374,1.374,0,0,1-1.532-1.5c-.028-1.193-.013-2.387-.013-3.581V441.46h16.992v16.2a2.22,2.22,0,0,1-.289,1.267,1.2,1.2,0,0,1-1.059.555C302.721,459.49,302.248,459.481,301.712,459.481Z" transform="translate(-7936.85 3409.624)"/>
      <path id="Path_8" data-name="Path 8" d="M100.253,448.8c0,1.989.03,3.979-.012,5.967a2.239,2.239,0,0,1-1.388,2.075,1.909,1.909,0,0,1-2.481-1.016,3.055,3.055,0,0,1-.35-1.594q0-5.471,0-10.941a2.888,2.888,0,0,1,.67-2.018,1.847,1.847,0,0,1,2.957.057,2.922,2.922,0,0,1,.626,2c-.011,1.823,0,3.645,0,5.47Z" transform="translate(-7751 3410.5)"/>
      <path id="Path_9" data-name="Path 9" d="M909.331,448.843c0-1.989-.03-3.979.013-5.967a2.315,2.315,0,0,1,1.478-2.112,1.953,1.953,0,0,1,2.407,1.082,3.192,3.192,0,0,1,.335,1.6q0,5.42,0,10.841a3.029,3.029,0,0,1-.659,2.056,1.841,1.841,0,0,1-2.451.418,2.442,2.442,0,0,1-1.123-2.049c-.025-1.956-.008-3.912-.008-5.868Z" transform="translate(-8540.192 3410.415)"/>
    </g>
    <text id="Android" transform="translate(760 3133.501)" fill="#38444e" font-size="12" font-family="FuturaBT-Light, Futura Lt BT" font-weight="300" letter-spacing="0.012em"><tspan x="0" y="0">Android</tspan></text>
  </g>
</svg>
