<svg xmlns="http://www.w3.org/2000/svg" width="56" height="54.104" viewBox="0 0 56 54.104">
  <g id="Group_44" data-name="Group 44" transform="translate(-1007.645 -3086.231)">
    <text id="Apple_IOS" data-name="Apple/IOS" transform="translate(1008.645 3137.335)" fill="#38444e" font-size="12" font-family="FuturaBT-Light, Futura Lt BT" font-weight="300" letter-spacing="0.012em"><tspan x="0" y="0">Apple/IOS</tspan></text>
    <g id="Group_39" data-name="Group 39" transform="translate(7443.932 -827.209)">
      <path id="Path_2" data-name="Path 2" d="M117.479,246.539a9.774,9.774,0,0,0-2.3,2.211,6.8,6.8,0,0,0-1.017,6.2,7.573,7.573,0,0,0,2.954,4.264c.314.214.653.392.986.576.22.122.332.24.21.526a31.211,31.211,0,0,1-2.667,5.261,11.407,11.407,0,0,1-3.159,2.986,3.009,3.009,0,0,1-2.791.255c-.661-.221-1.324-.446-1.961-.724a5.5,5.5,0,0,0-4.358-.04c-.691.268-1.39.513-2.088.761a3.851,3.851,0,0,1-3.57-.554,11.384,11.384,0,0,1-2.979-3.211,19.759,19.759,0,0,1-2.4-4.844,21.181,21.181,0,0,1-1.269-7.3,10.479,10.479,0,0,1,2.01-6.2,7.923,7.923,0,0,1,3.97-3.05,6.992,6.992,0,0,1,4.9.189c.535.217,1.076.42,1.607.644a3.53,3.53,0,0,0,2.739-.048c.753-.288,1.491-.61,2.253-.876a6.3,6.3,0,0,1,3.166-.407,8.364,8.364,0,0,1,4.618,2.171C116.717,245.711,117.077,246.115,117.479,246.539Z" transform="translate(-6513 3678.501)"/>
      <path id="Path_3" data-name="Path 3" d="M503.088,2.44a6.69,6.69,0,0,1-.786,4.621,7.033,7.033,0,0,1-4.05,2.79c-.493.163-1.011.251-1.523.376C496.342,6.135,498.849,3.34,503.088,2.44Z" transform="translate(-6904.875 3911)"/>
    </g>
  </g>
</svg>
