<svg xmlns="http://www.w3.org/2000/svg" width="20" height="15" viewBox="0 0 20 15">
  <g id="email" transform="translate(0 -64)">
    <g id="Group_123" data-name="Group 123" transform="translate(0 64)">
      <path id="Path_13" data-name="Path 13" d="M15.833,69.855V65.667A1.668,1.668,0,0,0,14.167,64H1.667A1.668,1.668,0,0,0,0,65.667V74a1.668,1.668,0,0,0,1.667,1.667h9.344a4.581,4.581,0,0,0,6.7,2.72.417.417,0,1,0-.418-.721,3.751,3.751,0,1,1,1.875-3.249v.417a.833.833,0,1,1-1.667,0V73.167a.415.415,0,0,0-.7-.3,2.083,2.083,0,1,0,.176,2.922A1.664,1.664,0,0,0,20,74.833v-.417A4.588,4.588,0,0,0,15.833,69.855ZM1.667,64.833h12.5c.017,0,.032.009.049.01L8.259,69.732a.7.7,0,0,1-.657.021l-5.984-4.91C1.635,64.842,1.65,64.833,1.667,64.833ZM15,69.855a4.588,4.588,0,0,0-4.167,4.562c0,.141.009.279.021.417H1.667A.834.834,0,0,1,.833,74V65.667A.825.825,0,0,1,.9,65.335l6.206,5.09a1.466,1.466,0,0,0,1.585.018.4.4,0,0,0,.067-.045l6.167-5.062a.825.825,0,0,1,.071.331v4.188Zm.417,5.812a1.25,1.25,0,1,1,1.25-1.25A1.251,1.251,0,0,1,15.417,75.667Z" transform="translate(0 -64)" fill="rgba(0,0,0,0.63)"/>
    </g>
  </g>
</svg>
