<svg id="user_1_" data-name="user (1)" xmlns="http://www.w3.org/2000/svg" width="20" height="20" viewBox="0 0 20 20">
  <g id="Group_117" data-name="Group 117">
    <path id="Path_12" data-name="Path 12" d="M10,0A9.995,9.995,0,0,0,2.291,16.363c0,.005,0,.011.008.016A10,10,0,0,0,6.075,19.2l.05.022c.117.049.235.095.354.14l.141.053q.153.055.309.1l.2.062q.138.041.276.079c.081.022.163.042.245.062s.166.04.25.058.188.038.282.055c.076.014.152.029.228.041.1.017.211.03.317.044.068.009.136.019.2.026.12.013.241.022.362.03.056,0,.112.01.169.013Q9.729,20,10,20c.18,0,.359-.005.537-.015.057,0,.113-.009.169-.013.121-.009.242-.017.362-.03.069-.007.137-.017.2-.026.106-.014.212-.027.317-.044.076-.012.152-.027.228-.041.094-.017.189-.035.282-.055s.167-.038.25-.058.164-.04.245-.062.185-.051.276-.079l.2-.062q.155-.05.309-.1l.141-.053c.119-.045.237-.091.354-.14l.05-.022A10,10,0,0,0,17.7,16.379s0-.011.008-.016A10,10,0,0,0,10,0Zm4.052,18.407-.015.007c-.119.057-.24.111-.362.164l-.083.035q-.16.067-.323.128l-.136.05c-.1.034-.193.067-.291.1l-.183.056c-.087.026-.174.051-.262.074s-.149.038-.223.055-.156.038-.235.054-.173.034-.26.05c-.07.013-.14.027-.211.038-.1.015-.2.028-.295.04-.062.008-.124.017-.187.024-.112.012-.226.02-.339.028-.05,0-.1.009-.151.012q-.247.013-.5.013t-.5-.013c-.051,0-.1-.008-.151-.012-.113-.008-.226-.016-.339-.028-.063-.007-.125-.016-.187-.024-.1-.012-.2-.025-.295-.04-.071-.011-.141-.025-.211-.038-.087-.016-.174-.032-.26-.05s-.157-.036-.235-.054-.149-.036-.223-.055-.175-.049-.262-.074l-.183-.056q-.147-.047-.291-.1l-.136-.05q-.163-.061-.323-.128l-.082-.035c-.122-.052-.243-.107-.362-.164l-.015-.007a9.379,9.379,0,0,1-3.024-2.331,7.357,7.357,0,0,1,4.815-5.046c.046.028.095.054.142.08l.084.047c.1.053.2.1.3.146.079.035.161.064.242.094l.048.018a4.254,4.254,0,0,0,2.883,0l.048-.018c.081-.03.163-.059.242-.094.1-.044.2-.094.3-.146l.084-.047c.048-.027.1-.052.143-.081a7.359,7.359,0,0,1,4.815,5.046A9.388,9.388,0,0,1,14.052,18.407ZM6.333,7.333a3.667,3.667,0,1,1,5.661,3.072,3.531,3.531,0,0,1-.408.228l-.05.024a3.751,3.751,0,0,1-3.073,0l-.05-.024a3.5,3.5,0,0,1-.408-.228A3.664,3.664,0,0,1,6.333,7.333Zm11.243,8.108a8.032,8.032,0,0,0-4.682-4.891,4.334,4.334,0,1,0-5.788,0,8.032,8.032,0,0,0-4.682,4.891A9.331,9.331,0,1,1,19.333,10,9.281,9.281,0,0,1,17.576,15.441Z" fill="rgba(0,0,0,0.63)"/>
  </g>
</svg>
